PathFileType	4	(X/Y/Z)	E:\Qualisys_Data\Carbon_Farble_Plate\Data\Amateur_Runner\S14\T2\S14T2V13_c3d.trc
DataRate	CameraRate	NumFrames	NumMarkers	Units	OrigDataRate	OrigDataStartFrame	OrigNumFrames
200.000000	200.000000	5	39	mm	200.000000	79	319
Frame#	Time	LSHO			RSHO			LICST			RICST			LASIS			LHEEL			RASIS			LTROC			RTROC			SACR			LTH1			LSK4			LTH2			LTH3			RHM5			LSK2			LTH4			RTH1			LTOE			RTH2			RTH3			RTH4			LLEP			RLEP			LSK1			LSK3			RSK1			LHM5			RSK2			LFT1			RSK3			RSK4			LLME			RLME			RTOE			RHEEL			RFT1			RFT2			LFT2			
		X1	Y1	Z1	X2	Y2	Z2	X3	Y3	Z3	X4	Y4	Z4	X5	Y5	Z5	X6	Y6	Z6	X7	Y7	Z7	X8	Y8	Z8	X9	Y9	Z9	X10	Y10	Z10	X11	Y11	Z11	X12	Y12	Z12	X13	Y13	Z13	X14	Y14	Z14	X15	Y15	Z15	X16	Y16	Z16	X17	Y17	Z17	X18	Y18	Z18	X19	Y19	Z19	X20	Y20	Z20	X21	Y21	Z21	X22	Y22	Z22	X23	Y23	Z23	X24	Y24	Z24	X25	Y25	Z25	X26	Y26	Z26	X27	Y27	Z27	X28	Y28	Z28	X29	Y29	Z29	X30	Y30	Z30	X31	Y31	Z31	X32	Y32	Z32	X33	Y33	Z33	X34	Y34	Z34	X35	Y35	Z35	X36	Y36	Z36	X37	Y37	Z37	X38	Y38	Z38	X39	Y39	Z39	

80	0.395	-1153.077514648438	1479.110229492188	-517.2094116210938	-1054.969360351562	1472.2568359375	-240.394775390625	-1158.239868164062	1027.451049804688	-479.3373107910156	-1117.275756835938	1028.024780273438	-210.9042358398438	-1117.093383789062	975.6929321289062	-457.1420593261719	-1027.759155273438	106.0354843139648	-361.1863708496094	-1099.370849609375	981.4317016601562	-227.1489562988281	-1238.989990234375	909.1954956054688	-500.2508544921875	-1261.442260742188	933.1858520507812	-165.4920196533203	-1287.633056640625	1036.705810546875	-362.5792541503906	-1099.460571289062	693.7223510742188	-505.2778625488281	-1072.81201171875	322.9490661621094	-443.8292236328125	-1166.049926757812	669.5865478515625	-469.3004150390625	-1051.3115234375	609.9714965820312	-477.0199584960938	-1701.748657226562	180.0465240478516	-173.8147735595703	-1089.567138671875	420.3956298828125	-460.1957092285156	-1123.850952148438	583.396728515625	-451.4234619140625	-1228.032836914062	690.095458984375	-174.8890380859375	-786.603271484375	182.8983001708984	-422.7109985351562	-1297.354736328125	724.7109985351562	-164.4088439941406	-1269.246215820312	601.4405517578125	-199.4982452392578	-1343.971557617188	636.8995361328125	-183.8688354492188	-1063.363525390625	528.9818725585938	-465.3155517578125	-1361.204956054688	562.3914794921875	-188.3059692382812	-1008.594116210938	433.959228515625	-464.9349975585938	-992.7791748046876	334.5555725097656	-454.0210266113281	-1438.639770507812	464.2457580566406	-184.0435638427734	-848.9164428710938	133.9352722167969	-473.6455078125	-1496.338623046875	526.759521484375	-186.88525390625	-1004.804870605469	84.26573181152344	-341.3965148925781	-1518.470336914062	399.9690246582031	-189.3463897705078	-1566.122314453125	460.8033447265625	-196.5394287109375	-990.3970336914062	150.7948455810547	-431.1773376464844	-1676.723022460938	321.8211059570312	-206.9977264404297	-1663.527587890625	104.827018737793	-225.7241821289062	-1706.965942382812	359.6294250488281	-267.8734741210938	-1729.01123046875	334.5323181152344	-296.5822143554688	-1737.208740234375	353.1925964355469	-244.6389312744141	-1016.942565917969	73.91168212890625	-394.184814453125
81	0.4	-1136.871215820312	1476.418090820312	-518.5934448242188	-1039.081176757812	1470.028564453125	-241.1082763671875	-1141.975463867188	1024.235961914062	-479.9102478027344	-1101.354614257812	1026.453491210938	-211.7860412597656	-1101.471557617188	972.8106689453124	-456.9494018554688	-1008.983825683594	103.4025421142578	-360.15087890625	-1082.893676757812	979.3688354492188	-227.8699340820312	-1220.2158203125	905.166015625	-500.6395568847656	-1244.330444335938	930.7742919921876	-165.4366607666016	-1271.624755859375	1034.19580078125	-362.0231018066406	-1085.141479492188	690.3775634765625	-507.2587585449219	-1055.760620117188	320.0769348144531	-443.6354675292969	-1150.945678710938	666.8778686523438	-468.9219970703125	-1036.109252929688	607.3409423828125	-477.7657470703125	-1689.450439453125	184.5654449462891	-175.2288055419922	-1073.154663085938	417.1881713867188	-459.890869140625	-1108.692749023438	581.1969604492188	-450.7444763183594	-1209.613525390625	687.4148559570312	-176.2429351806641	-769.1731567382812	182.8408508300781	-424.7828979492188	-1279.068115234375	721.3485717773438	-164.6856384277344	-1250.325805664062	598.5560913085938	-200.2736206054688	-1325.99365234375	633.4039306640625	-184.4620056152344	-1047.520629882812	526.3717651367188	-464.70361328125	-1342.227172851562	559.1397094726562	-189.755615234375	-991.9745483398438	431.5778198242188	-464.7987670898438	-975.1956176757812	332.1572265625	-454.0511474609375	-1421.640502929688	462.7262573242188	-184.8121032714844	-831.37060546875	133.5250549316406	-475.1212158203125	-1477.79345703125	526.7918090820312	-187.8034820556641	-985.5433959960938	82.18009948730469	-340.7984619140625	-1502.865844726562	398.4954833984375	-191.9756774902344	-1550.170166015625	462.5149841308594	-198.1576385498047	-971.9992065429688	148.6934661865234	-430.94775390625	-1663.350830078125	325.896484375	-208.4184265136719	-1651.968017578125	108.8359222412109	-226.3279571533203	-1694.03271484375	364.2213134765625	-269.2500610351562	-1716.832763671875	339.6682739257812	-297.5243225097656	-1724.25634765625	357.6434936523438	-245.6793060302734	-996.6340942382812	70.76426696777344	-391.0621337890625
82	0.405	-1120.826904296875	1473.121459960938	-519.7069091796875	-1023.021606445312	1467.51806640625	-242.5001831054688	-1125.897216796875	1021.026977539062	-480.3735656738281	-1085.285522460938	1024.786010742188	-211.8059234619141	-1085.013793945312	969.8951416015624	-457.7423400878906	-991.8003540039062	100.6435089111328	-359.4290161132812	-1066.65283203125	977.5641479492188	-228.0128479003906	-1207.41015625	901.7284545898438	-500.2921142578125	-1227.365844726562	927.9911499023438	-165.1670837402344	-1255.557739257812	1031.73681640625	-362.2810974121094	-1070.406616210938	686.9618530273438	-508.3724975585938	-1038.033813476562	317.5145874023438	-443.6600341796875	-1135.44140625	664.0630493164062	-468.6201477050781	-1020.563781738281	604.990966796875	-478.1897277832031	-1675.967895507812	189.4945220947266	-175.4235687255859	-1056.330200195312	414.6655883789062	-460.0079956054688	-1092.304443359375	578.6587524414062	-449.8697204589844	-1191.1875	684.2275390625	-177.3089599609375	-752.900146484375	181.5773162841797	-426.1328125	-1260.96044921875	717.9151000976562	-165.1081237792969	-1231.554565429688	595.2852783203125	-200.6864318847656	-1307.170288085938	629.7025756835938	-184.9674530029297	-1031.301513671875	523.9232177734375	-464.654296875	-1323.024658203125	555.4308471679688	-190.0970001220703	-975.4849243164062	429.1676330566406	-464.4425964355469	-958.5136108398438	329.4967651367188	-453.2271118164062	-1404.898193359375	460.5599670410156	-185.4141845703125	-815.400634765625	131.996337890625	-475.5537414550781	-1459.302490234375	526.0741577148438	-188.4194793701172	-967.6067504882812	79.61778259277344	-339.9390563964844	-1487.139282226562	398.3562622070312	-193.0920715332031	-1532.4228515625	463.5354614257812	-198.9196929931641	-955.3446044921876	146.0276794433594	-429.5052490234375	-1646.389526367188	330.1635131835938	-210.25634765625	-1639.40966796875	113.3591156005859	-227.7367401123047	-1680.54296875	368.7901306152344	-270.3871154785156	-1703.452392578125	343.59765625	-298.6610412597656	-1710.3154296875	362.1932373046875	-246.6565399169922	-979.44921875	68.1311264038086	-390.3235778808594
83	0.41	-1105.389770507812	1470.17919921875	-521.36083984375	-1007.350158691406	1464.966674804688	-243.4125823974609	-1109.64111328125	1017.805847167969	-480.9366455078125	-1069.133666992188	1022.303039550781	-211.9788818359375	-1069.723876953125	966.5884399414062	-457.8340759277344	-975.4887084960938	97.5378875732422	-358.4703063964844	-1050.519897460938	975.1893310546876	-228.48193359375	-1191.668090820312	897.5296630859375	-500.1515808105469	-1210.238891601562	924.7965698242188	-164.9788970947266	-1239.363525390625	1028.447387695312	-362.2459106445312	-1055.1630859375	684.0701904296875	-509.0153198242188	-1022.356567382812	314.7246398925781	-443.4368896484375	-1119.595825195312	660.8817138671875	-468.8432922363281	-1004.344177246094	602.5162963867188	-477.8646850585938	-1663.282348632812	193.8395233154297	-176.7109985351562	-1040.023803710938	411.9511413574219	-459.9967346191406	-1076.31591796875	575.6502685546875	-449.7785034179688	-1172.4638671875	681.00439453125	-178.4131164550781	-737.534423828125	179.5912933349609	-427.1824035644531	-1242.651611328125	713.6732177734375	-165.4690246582031	-1212.705078125	591.2071533203125	-201.7700958251953	-1288.572875976562	625.4381103515625	-185.2074279785156	-1015.074890136719	521.5499267578125	-464.3118591308594	-1303.810668945312	551.0841674804688	-190.8443450927734	-959.0640869140624	426.1196594238281	-464.2052612304688	-942.3414306640624	326.9432983398438	-453.0679626464844	-1386.427612304688	457.9400634765625	-185.7546081542969	-800.4979248046875	129.1457214355469	-475.6042785644531	-1440.437866210938	524.79736328125	-189.1992645263672	-951.3930053710938	76.7039566040039	-339.8276977539062	-1471.29638671875	398.0238647460938	-194.5467376708984	-1514.960815429688	464.3467407226562	-199.6669464111328	-939.9835205078124	143.3987426757812	-428.8053894042969	-1636.539794921875	333.1783752441406	-211.636962890625	-1627.09033203125	117.6270446777344	-228.4949340820312	-1664.9072265625	372.3171081542969	-270.5650939941406	-1688.941162109375	348.0481872558594	-299.4763488769531	-1696.149536132812	366.5536193847656	-247.9783020019531	-963.40283203125	65.3314437866211	-389.6255798339844
84	0.415	-1089.712646484375	1466.281616210938	-522.6962890625	-991.4386596679688	1462.009033203125	-244.5107727050781	-1093.374633789062	1014.031982421875	-481.1733703613281	-1053.729858398438	1020.108154296875	-212.9157257080078	-1053.36767578125	963.0208129882812	-458.4081420898438	-960.4240112304688	94.12248992919922	-357.2743225097656	-1034.333251953125	972.8951416015624	-228.9575500488281	-1176.102294921875	893.2344360351562	-499.9201354980469	-1193.4599609375	921.2505493164062	-164.8704376220703	-1223.489624023438	1024.962280273438	-362.3209228515625	-1039.43408203125	681.640869140625	-508.93798828125	-1005.891357421875	312.049560546875	-443.1216125488281	-1103.904541015625	658.0807495117188	-469.01708984375	-989.112060546875	599.9520263671875	-478.2953796386719	-1649.16064453125	198.0711517333984	-177.8107147216797	-1023.86572265625	409.0506591796875	-459.6496887207031	-1059.591796875	572.8116455078125	-449.4368591308594	-1153.943969726562	677.4823608398438	-179.2651214599609	-723.2754516601562	176.8274078369141	-427.89501953125	-1224.320190429688	709.3312377929688	-165.6032104492188	-1193.178344726562	587.70703125	-202.1242218017578	-1269.460205078125	620.9427490234375	-185.2925415039062	-998.6631469726562	518.9188842773438	-464.218505859375	-1283.898803710938	546.5755615234375	-191.0226898193359	-943.079833984375	423.1098937988281	-464.0557250976562	-926.3824462890624	323.5904846191406	-452.21435546875	-1368.790405273438	454.7190551757812	-186.7339630126953	-786.72216796875	126.330322265625	-475.9945678710938	-1420.8564453125	523.2656860351562	-189.8916473388672	-936.2391357421876	73.29795837402344	-339.0615844726562	-1454.592041015625	397.23095703125	-195.7679443359375	-1496.561157226562	464.453125	-200.3063354492188	-925.037353515625	140.0975494384766	-427.6846618652344	-1619.001220703125	337.52880859375	-211.9448852539062	-1615.439697265625	120.647575378418	-230.6635131835938	-1649.625854492188	376.1376647949219	-272.531005859375	-1674.75146484375	352.6700439453125	-300.945556640625	-1681.21728515625	370.8396911621094	-249.3021240234375	-948.6736450195312	62.08252716064453	-388.532470703125
